<svg width="160" height="160" viewBox="0 0 160 160" fill="none" xmlns="http://www.w3.org/2000/svg">
<rect x="21" y="126" width="13" height="13" fill="black" fill-opacity="0.3"/>
<rect x="34.0001" y="126" width="13" height="13" fill="black" fill-opacity="0.3"/>
<rect x="34.0001" y="139" width="13" height="13" fill="black" fill-opacity="0.3"/>
<rect x="46.9998" y="139" width="13" height="13" fill="black" fill-opacity="0.3"/>
<rect x="59.9998" y="139" width="13" height="13" fill="black" fill-opacity="0.3"/>
<rect x="73" y="139" width="13" height="13" fill="black" fill-opacity="0.3"/>
<rect x="86.0001" y="139" width="13" height="13" fill="black" fill-opacity="0.3"/>
<rect x="98.9999" y="139" width="13" height="13" fill="black" fill-opacity="0.3"/>
<rect x="112" y="139" width="13" height="13" fill="black" fill-opacity="0.3"/>
<rect x="112" y="126" width="13" height="13" fill="black" fill-opacity="0.3"/>
<rect x="125" y="126" width="13" height="13" fill="black" fill-opacity="0.3"/>
<rect x="21" y="74.0001" width="13" height="13" fill="#1F233F"/>
<rect x="21" y="87" width="13" height="13" fill="#1F233F"/>
<rect x="34.0001" y="100" width="13" height="13" fill="#1F233F"/>
<rect x="46.9998" y="113" width="13" height="13" fill="#1F233F"/>
<rect x="59.9998" y="113" width="13" height="13" fill="#1F233F"/>
<rect x="73" y="113" width="13" height="13" fill="#1F233F"/>
<rect x="86.0001" y="113" width="13" height="13" fill="#1F233F"/>
<rect x="98.9999" y="113" width="13" height="13" fill="#1F233F"/>
<rect x="98.9999" y="126" width="13" height="13" fill="#1F233F"/>
<rect x="112" y="113" width="13" height="13" fill="#1F233F"/>
<rect x="138" y="87" width="13" height="13" fill="#1F233F"/>
<rect x="138" y="74.0001" width="13" height="13" fill="#1F233F"/>
<rect x="138" y="61" width="13" height="13" fill="#1F233F"/>
<rect x="138" y="47.9998" width="13" height="13" fill="#1F233F"/>
<rect x="138" y="34.9999" width="13" height="13" fill="#1F233F"/>
<rect x="125" y="34.9999" width="13" height="13" fill="#1F233F"/>
<rect x="112" y="47.9998" width="13" height="13" fill="#1F233F"/>
<rect x="98.9999" y="47.9998" width="13" height="13" fill="#1F233F"/>
<rect x="98.9999" y="34.9999" width="13" height="13" fill="#1F233F"/>
<rect x="86.0001" y="22.0001" width="13" height="13" fill="#1F233F"/>
<rect x="59.9998" y="9" width="13" height="13" fill="#1F233F"/>
<rect x="46.9998" y="22.0001" width="13" height="13" fill="#1F233F"/>
<rect x="34.0001" y="34.9999" width="13" height="13" fill="#1F233F"/>
<rect x="21" y="47.9998" width="13" height="13" fill="#1F233F"/>
<rect x="34.0001" y="61" width="13" height="13" fill="#1F233F"/>
<rect x="73" y="9" width="13" height="13" fill="#1F233F"/>
<rect x="125" y="100" width="13" height="13" fill="#1F233F"/>
<rect x="73" y="126" width="13" height="13" fill="#1F233F"/>
<rect x="46.9998" y="126" width="13" height="13" fill="#1F233F"/>
<rect x="59.9998" y="126" width="13" height="13" fill="#EE6A0E"/>
<rect x="86.0001" y="126" width="13" height="13" fill="#EE6A0E"/>
<rect x="46.9998" y="100" width="13" height="13" fill="#C7CFDE"/>
<rect x="59.9998" y="100" width="13" height="13" fill="#C7CFDE"/>
<rect x="73" y="100" width="13" height="13" fill="#C7CFDE"/>
<rect x="86.0001" y="100" width="13" height="13" fill="#C7CFDE"/>
<rect x="98.9999" y="100" width="13" height="13" fill="#C7CFDE"/>
<rect x="112" y="100" width="13" height="13" fill="#C7CFDE"/>
<rect x="125" y="87" width="13" height="13" fill="#C7CFDE"/>
<rect x="34.0001" y="87" width="13" height="13" fill="#C7CFDE"/>
<rect x="46.9998" y="34.9999" width="13" height="13" fill="#C7CFDE"/>
<rect x="59.9998" y="22.0001" width="13" height="13" fill="#C7CFDE"/>
<rect x="73" y="22.0001" width="13" height="13" fill="#C7CFDE"/>
<rect x="86.0001" y="34.9999" width="13" height="13" fill="#C7CFDE"/>
<rect x="73.0001" y="74.0001" width="13" height="13" fill="#8A9DB8"/>
<rect x="86.0001" y="87" width="13" height="13" fill="#8A9DB8"/>
<rect x="98.9999" y="87" width="13" height="13" fill="#8A9DB8"/>
<rect x="112" y="87" width="13" height="13" fill="#8A9DB8"/>
<rect x="125" y="74.0001" width="13" height="13" fill="#8A9DB8"/>
<rect x="34.0001" y="47.9998" width="13" height="13" fill="#FF4100"/>
<rect x="46.9998" y="47.9998" width="13" height="13" fill="#FF4100"/>
<rect x="73.0001" y="47.9998" width="13" height="13" fill="#0E0E0E"/>
<rect x="34.0001" y="74.0001" width="13" height="13" fill="white"/>
<rect x="46.9998" y="74.0001" width="13" height="13" fill="white"/>
<rect x="46.9998" y="87" width="13" height="13" fill="white"/>
<rect x="59.9998" y="74.0001" width="13" height="13" fill="white"/>
<rect x="59.9998" y="87" width="13" height="13" fill="white"/>
<rect x="73" y="87" width="13" height="13" fill="white"/>
<rect x="46.9998" y="61" width="13" height="13" fill="white"/>
<rect x="59.9998" y="61" width="13" height="13" fill="white"/>
<rect x="59.9998" y="47.9998" width="13" height="13" fill="white"/>
<rect x="59.9998" y="34.9999" width="13" height="13" fill="white"/>
<rect x="73" y="34.9999" width="13" height="13" fill="white"/>
<rect x="73" y="61" width="13" height="13" fill="white"/>
<rect x="86.0001" y="61" width="13" height="13" fill="white"/>
<rect x="86.0001" y="74.0001" width="13" height="13" fill="white"/>
<rect x="98.9999" y="74.0001" width="13" height="13" fill="white"/>
<rect x="112" y="74.0001" width="13" height="13" fill="white"/>
<rect x="112" y="61" width="13" height="13" fill="white"/>
<rect x="98.9999" y="61" width="13" height="13" fill="white"/>
<rect x="125" y="61" width="13" height="13" fill="white"/>
<rect x="125" y="47.9998" width="13" height="13" fill="white"/>
<rect x="86.0001" y="47.9998" width="13" height="13" fill="white"/>
</svg>
